<svg width="35" height="26" viewBox="0 0 35 26" fill="none" xmlns="http://www.w3.org/2000/svg">
<path d="M10.0001 8.57125C10.1828 8.57125 10.3656 8.5015 10.5051 8.36199C10.7841 8.08296 10.7841 7.63095 10.5051 7.35198L8.57151 5.41839V1.42838C8.57151 1.03359 8.25204 0.714111 7.85726 0.714111C7.46242 0.714111 7.14294 1.03359 7.14294 1.42838V5.71412C7.14294 5.90387 7.21831 6.08528 7.35221 6.21918L9.49502 8.36205C9.6346 8.5015 9.81731 8.57125 10.0001 8.57125Z" fill="#2C73F6"/>
<path d="M34.7864 13.0664L28.9531 7.35217C28.8163 7.2182 28.6312 7.1429 28.4375 7.1429H23.3333V5.00004C23.3333 4.6052 23.0072 4.28571 22.6041 4.28571H15.1561C13.8255 1.74562 11.1297 0 8.02079 0C3.59885 0 0 3.5247 0 7.8571C0 11.4459 2.47222 14.4736 5.83331 15.4096V20C5.83331 21.5757 7.1421 22.8571 8.75 22.8571H8.82369C9.16249 24.4853 10.6347 25.7143 12.3958 25.7143C14.1569 25.7143 15.6292 24.4853 15.968 22.8571H24.8653C25.2042 24.4853 26.6764 25.7143 28.4375 25.7143C30.1986 25.7143 31.6708 24.4853 32.0096 22.8571H34.2708C34.6739 22.8571 35 22.5376 35 22.1428V13.5714C35 13.3817 34.9231 13.2003 34.7864 13.0664ZM1.45831 7.8571C1.45831 4.31215 4.40207 1.42855 8.02079 1.42855C11.6395 1.42855 14.5833 4.31221 14.5833 7.8571C14.5833 11.402 11.6395 14.2857 8.02079 14.2857C4.40207 14.2857 1.45831 11.4021 1.45831 7.8571ZM12.3958 24.2858C11.1896 24.2858 10.2083 23.3245 10.2083 22.1429C10.2083 20.9612 11.1896 20 12.3958 20C13.6021 20 14.5833 20.9612 14.5833 22.1429C14.5833 23.3245 13.6021 24.2858 12.3958 24.2858ZM21.875 21.4286H15.968C15.6292 19.8004 14.157 18.5714 12.3959 18.5714C10.6347 18.5714 9.16255 19.8004 8.82375 21.4286H8.75C7.94532 21.4286 7.29171 20.7875 7.29171 20V15.6782C7.53219 15.6995 7.77471 15.7143 8.02085 15.7143C12.4429 15.7143 16.0417 12.1896 16.0417 7.85716C16.0417 7.1136 15.9286 6.39666 15.7307 5.71431H21.875V21.4286ZM28.4375 24.2858C27.2312 24.2858 26.25 23.3245 26.25 22.1429C26.25 20.9612 27.2312 20 28.4375 20C29.6438 20 30.625 20.9612 30.625 22.1429C30.625 23.3245 29.6438 24.2858 28.4375 24.2858ZM33.5417 21.4286H32.0097C31.6709 19.8004 30.1987 18.5714 28.4376 18.5714C26.6764 18.5714 25.2043 19.8004 24.8655 21.4286H23.3334V8.57143H28.1357L33.5418 13.8671V21.4286H33.5417Z" fill="#2C73F6"/>
<path d="M26.4286 8.57149C26.4286 8.17665 26.1091 7.85718 25.7143 7.85718C25.3195 7.85718 25 8.17665 25 8.57149V12.8571C25 13.252 25.3195 13.5715 25.7143 13.5715H31.4285C31.8234 13.5715 32.1429 13.252 32.1429 12.8571C32.1429 12.4623 31.8234 12.1428 31.4285 12.1428H26.4286V8.57149Z" fill="#2C73F6"/>
</svg>
